<?xml version="1.0" encoding="UTF-8"?>
<!-- Generated by Pixelmator Pro 3.4.3 -->
<svg width="2000" height="1000" viewBox="0 0 2000 1000" xmlns="http://www.w3.org/2000/svg">
    <path id="Rectangle" fill="#262626" fill-rule="evenodd" stroke="none" d="M 0 1000 L 1000 1000 L 1000 0 L 0 0 Z"/>
    <path id="Rectangle-copy" fill="#ffffff" fill-rule="evenodd" stroke="none" d="M 1000 1000 L 2000 1000 L 2000 0 L 1000 0 Z"/>
    <g id="Logo-2-Night">
        <linearGradient id="linearGradient1" x1="1486.924897" y1="53" x2="1486.924897" y2="763.47819" gradientUnits="userSpaceOnUse">
            <stop offset="0" stop-color="#3636b6" stop-opacity="1"/>
            <stop offset="1" stop-color="#0fa08b" stop-opacity="1"/>
        </linearGradient>
        <path id="White-Background" fill="url(#linearGradient1)" fill-rule="evenodd" stroke="#ffffff" stroke-width="22.956526" d="M 1497.625 41.671875 L 1504.703125 41.96875 L 1511.71875 42.40625 L 1518.71875 43 L 1525.65625 43.71875 L 1532.53125 44.59375 L 1539.359375 45.59375 L 1546.125 46.75 L 1552.828125 48.03125 L 1559.46875 49.4375 L 1566.0625 50.984375 L 1572.578125 52.671875 L 1579.015625 54.46875 L 1585.40625 56.390625 L 1591.703125 58.453125 L 1597.9375 60.625 L 1604.109375 62.9375 L 1610.1875 65.359375 L 1616.171875 67.90625 L 1622.078125 70.546875 L 1627.90625 73.328125 L 1633.640625 76.203125 L 1639.296875 79.21875 L 1644.859375 82.328125 L 1650.328125 85.546875 L 1655.6875 88.875 L 1660.96875 92.3125 L 1666.140625 95.859375 L 1671.203125 99.484375 L 1676.140625 103.21875 L 1681.015625 107.0625 L 1685.765625 111.015625 L 1690.390625 115.046875 L 1694.921875 119.15625 L 1699.328125 123.390625 L 1703.59375 127.703125 L 1707.78125 132.109375 L 1711.8125 136.609375 L 1715.734375 141.1875 L 1719.515625 145.84375 L 1723.171875 150.578125 L 1726.703125 155.40625 L 1730.109375 160.3125 L 1732.546875 164.0625 L 1734.125 166.5625 L 1735.703125 169.09375 L 1737.234375 171.671875 L 1738.71875 174.234375 L 1740.15625 176.8125 L 1741.578125 179.421875 L 1742.953125 182.046875 L 1744.28125 184.65625 L 1745.59375 187.328125 L 1746.859375 190 L 1748.09375 192.703125 L 1749.265625 195.40625 L 1750.4375 198.140625 L 1751.546875 200.890625 L 1752.609375 203.625 L 1753.65625 206.390625 L 1754.65625 209.203125 L 1755.609375 212 L 1756.53125 214.84375 L 1757.40625 217.671875 L 1758.234375 220.515625 L 1759.03125 223.390625 L 1759.765625 226.265625 L 1760.484375 229.140625 L 1761.140625 232.046875 L 1761.765625 234.953125 L 1762.359375 237.921875 L 1762.890625 240.859375 L 1763.375 243.796875 L 1763.828125 246.765625 L 1764.234375 249.734375 L 1764.609375 252.75 L 1764.921875 255.765625 L 1765.1875 258.765625 L 1765.421875 261.78125 L 1765.609375 264.796875 L 1765.75 267.859375 L 1765.828125 270.921875 L 1765.890625 273.96875 L 1765.890625 774.953125 L 1207.9375 774.953125 L 1207.9375 273.96875 L 1208 270.890625 L 1208.09375 267.859375 L 1208.21875 264.828125 L 1208.40625 261.78125 L 1208.640625 258.734375 L 1208.921875 255.734375 L 1209.234375 252.75 L 1209.59375 249.765625 L 1210 246.796875 L 1210.453125 243.796875 L 1210.953125 240.828125 L 1211.484375 237.890625 L 1212.078125 234.953125 L 1212.703125 232.046875 L 1213.359375 229.171875 L 1214.0625 226.265625 L 1214.828125 223.359375 L 1215.609375 220.515625 L 1216.4375 217.671875 L 1217.3125 214.84375 L 1218.234375 212 L 1219.1875 209.203125 L 1220.171875 206.421875 L 1221.203125 203.65625 L 1222.28125 200.890625 L 1223.390625 198.140625 L 1224.5625 195.40625 L 1225.734375 192.703125 L 1226.96875 190 L 1228.234375 187.328125 L 1229.546875 184.65625 L 1230.890625 182.03125 L 1232.265625 179.421875 L 1233.65625 176.828125 L 1235.109375 174.234375 L 1236.609375 171.640625 L 1238.140625 169.09375 L 1239.6875 166.578125 L 1241.296875 164.046875 L 1243.75 160.3125 L 1247.125 155.40625 L 1250.640625 150.59375 L 1254.3125 145.84375 L 1258.109375 141.1875 L 1262.015625 136.609375 L 1266.0625 132.109375 L 1270.234375 127.703125 L 1274.515625 123.390625 L 1278.921875 119.171875 L 1283.4375 115.046875 L 1288.0625 111 L 1292.828125 107.0625 L 1297.671875 103.21875 L 1302.640625 99.484375 L 1307.703125 95.84375 L 1312.875 92.3125 L 1318.140625 88.875 L 1323.515625 85.546875 L 1328.96875 82.328125 L 1334.53125 79.21875 L 1340.1875 76.203125 L 1345.921875 73.328125 L 1351.765625 70.546875 L 1357.671875 67.90625 L 1363.65625 65.359375 L 1369.734375 62.9375 L 1375.890625 60.625 L 1382.125 58.453125 L 1388.4375 56.390625 L 1394.8125 54.46875 L 1401.25 52.671875 L 1407.765625 50.984375 L 1414.359375 49.4375 L 1421 48.03125 L 1427.71875 46.75 L 1434.484375 45.59375 L 1441.296875 44.59375 L 1448.171875 43.71875 L 1455.125 43 L 1462.109375 42.40625 L 1469.125 41.96875 L 1476.21875 41.671875 L 1483.328125 41.515625 L 1490.484375 41.515625 Z"/>
        <g id="Black-Background">
            <linearGradient id="linearGradient2" x1="1486.924897" y1="53" x2="1486.924897" y2="763.47819" gradientUnits="userSpaceOnUse">
                <stop offset="0" stop-color="#222266" stop-opacity="1"/>
                <stop offset="1" stop-color="#0c7163" stop-opacity="1"/>
            </linearGradient>
            <path id="Black-Backgroundv" fill="url(#linearGradient2)" fill-rule="evenodd" stroke="none" d="M 1754.418335 763.47821 L 1754.418335 353.339478 L 1754.418335 275.522766 C 1754.418335 151.807678 1634.668335 53 1486.924927 53 C 1339.181396 53 1219.431519 151.807678 1219.431519 275.522766 L 1219.431519 763.47821 L 1754.418335 763.47821 Z"/>
            <path id="Black-Backgroundv-copy" fill="none" stroke="#1b1b1b" stroke-width="28.087774" d="M 1497.6875 40.1875 L 1504.78125 40.46875 L 1511.84375 40.921875 L 1518.890625 41.5 L 1525.859375 42.234375 L 1532.765625 43.125 L 1539.625 44.125 L 1546.4375 45.265625 L 1553.1875 46.5625 L 1559.859375 47.984375 L 1566.484375 49.53125 L 1573.046875 51.21875 L 1579.546875 53.03125 L 1585.9375 54.96875 L 1592.28125 57.03125 L 1598.5625 59.234375 L 1604.75 61.5625 L 1610.875 64 L 1616.90625 66.546875 L 1622.84375 69.21875 L 1628.703125 72.015625 L 1634.46875 74.90625 L 1640.171875 77.9375 L 1645.78125 81.078125 L 1651.265625 84.3125 L 1656.671875 87.65625 L 1661.984375 91.125 L 1667.1875 94.6875 L 1672.296875 98.34375 L 1677.28125 102.109375 L 1682.171875 105.96875 L 1686.984375 109.96875 L 1691.640625 114.015625 L 1696.1875 118.1875 L 1700.625 122.4375 L 1704.9375 126.78125 L 1709.140625 131.21875 L 1713.21875 135.75 L 1717.1875 140.375 L 1721 145.09375 L 1724.6875 149.859375 L 1728.234375 154.734375 L 1731.65625 159.671875 L 1734.125 163.421875 L 1735.765625 165.984375 L 1737.328125 168.5625 L 1738.84375 171.109375 L 1740.359375 173.703125 L 1741.828125 176.328125 L 1743.25 178.9375 L 1744.640625 181.59375 L 1746.015625 184.296875 L 1747.3125 186.953125 L 1748.59375 189.640625 L 1749.828125 192.375 L 1751.046875 195.125 L 1752.203125 197.875 L 1753.3125 200.640625 L 1754.390625 203.390625 L 1755.46875 206.234375 L 1756.453125 209.078125 L 1757.421875 211.875 L 1758.34375 214.71875 L 1759.234375 217.578125 L 1760.0625 220.46875 L 1760.875 223.359375 L 1761.640625 226.3125 L 1762.328125 229.1875 L 1763.015625 232.125 L 1763.65625 235.09375 L 1764.234375 238.015625 L 1764.78125 241.015625 L 1765.28125 244.03125 L 1765.71875 246.984375 L 1766.140625 250 L 1766.515625 253.046875 L 1766.828125 256.0625 L 1767.125 259.125 L 1767.34375 262.203125 L 1767.515625 265.21875 L 1767.671875 268.3125 L 1767.765625 271.40625 L 1767.8125 274.484375 L 1767.8125 954.8125 L 1206.015625 954.8125 L 1206.015625 274.484375 L 1206.0625 271.375 L 1206.171875 268.3125 L 1206.296875 265.25 L 1206.484375 262.171875 L 1206.71875 259.125 L 1207 256.0625 L 1207.328125 253.046875 L 1207.671875 250.03125 L 1208.109375 246.984375 L 1208.546875 244 L 1209.0625 241.015625 L 1209.59375 238.0625 L 1210.1875 235.046875 L 1210.828125 232.109375 L 1211.5 229.1875 L 1212.21875 226.28125 L 1212.953125 223.390625 L 1213.765625 220.46875 L 1214.609375 217.578125 L 1215.484375 214.75 L 1216.40625 211.875 L 1217.375 209.046875 L 1218.375 206.234375 L 1219.421875 203.421875 L 1220.515625 200.640625 L 1221.640625 197.84375 L 1222.796875 195.125 L 1224 192.375 L 1225.25 189.640625 L 1226.515625 186.953125 L 1227.84375 184.265625 L 1229.1875 181.625 L 1230.578125 178.9375 L 1233.453125 173.71875 L 1234.984375 171.109375 L 1236.515625 168.546875 L 1238.09375 165.984375 L 1239.703125 163.4375 L 1242.1875 159.65625 L 1245.578125 154.75 L 1249.140625 149.859375 L 1252.828125 145.09375 L 1256.65625 140.359375 L 1260.625 135.75 L 1264.671875 131.234375 L 1268.890625 126.78125 L 1273.203125 122.4375 L 1277.640625 118.1875 L 1282.203125 114.015625 L 1286.859375 109.96875 L 1291.640625 105.984375 L 1296.546875 102.109375 L 1301.53125 98.34375 L 1306.640625 94.6875 L 1311.859375 91.125 L 1317.15625 87.671875 L 1322.5625 84.3125 L 1328.0625 81.078125 L 1333.640625 77.9375 L 1339.359375 74.90625 L 1345.125 72 L 1351 69.21875 L 1356.9375 66.546875 L 1362.96875 64 L 1369.0625 61.5625 L 1375.265625 59.234375 L 1381.5625 57.03125 L 1387.890625 54.96875 L 1394.3125 53.03125 L 1400.796875 51.21875 L 1407.359375 49.53125 L 1413.96875 47.984375 L 1420.640625 46.5625 L 1427.390625 45.265625 L 1434.203125 44.125 L 1441.0625 43.125 L 1447.96875 42.234375 L 1454.9375 41.5 L 1461.984375 40.921875 L 1469.0625 40.46875 L 1476.140625 40.1875 L 1483.3125 40.015625 L 1490.53125 40.015625 Z"/>
        </g>
        <linearGradient id="linearGradient3" x1="1487.754724" y1="729.102446" x2="1487.754724" y2="513.510722" gradientUnits="userSpaceOnUse">
            <stop offset="0" stop-color="#cbcbcb" stop-opacity="1"/>
            <stop offset="1" stop-color="#00ffdb" stop-opacity="1"/>
        </linearGradient>
        <path id="Path" fill="url(#linearGradient3)" fill-rule="evenodd" stroke="none" d="M 1720.482544 667.659668 C 1720.482544 537.566772 1615.021606 432.105713 1484.928711 432.105713 C 1354.835815 432.105713 1249.374756 537.566772 1249.374756 667.659668 C 1249.374756 704.085632 1257.226807 732.665161 1271.988647 763.45459 C 1460.929565 763.622559 1480.817749 763.509521 1697.828735 763.536438 C 1711.614014 733.593628 1720.482544 702.784729 1720.482544 667.659668 Z"/>
        <g id="pomala-dupka">
            <path id="Rectangle-copy-3" fill="#a4a4a4" fill-rule="evenodd" stroke="none" d="M 1495.907837 686.623718 L 1561.684692 686.623718 L 1582.136108 686.623718 L 1601.70752 686.623718 C 1601.70752 686.623718 1656.483154 465.438965 1601.70752 447.077393 C 1560.279297 432.222107 1555.337036 423.068726 1517.297852 434.213135 C 1462.063477 451.740417 1495.907837 686.623718 1495.907837 686.623718 Z"/>
            <path id="path1" fill="#7c7c7c" fill-rule="evenodd" stroke="none" d="M 1516.868164 433.103821 C 1516.868164 433.103821 1555.289551 424.040894 1566.005615 435.033752 C 1576.72168 446.026611 1578.750977 493.988525 1578.750977 493.988525 C 1578.750977 493.988525 1576.30249 566.932434 1571.764282 604.778687 C 1567.225952 642.625 1561.198364 686.8479 1561.198364 686.8479 L 1546.807617 686.660767 C 1546.807617 686.660767 1559.437988 607.468933 1560.650513 512.034424 C 1560.484863 493.208771 1560.829834 455.07782 1544.832764 445.833618 C 1528.835815 436.589417 1516.868164 433.103821 1516.868164 433.103821 Z"/>
            <path id="Rectangle-copy-4" fill="#a4a4a4" fill-rule="evenodd" stroke="none" d="M 1475.056274 686.623718 L 1369.256592 686.623718 C 1369.256592 686.623718 1314.480957 465.438965 1369.256592 447.077393 C 1410.684814 432.222107 1415.627075 423.068726 1453.66626 434.213135 C 1508.900757 451.740417 1475.056274 686.623718 1475.056274 686.623718 Z"/>
            <path id="Path-copy" fill="#7c7c7c" fill-rule="evenodd" stroke="none" d="M 1452.989136 433.103821 C 1452.989136 433.103821 1414.567749 424.040894 1403.851807 435.033752 C 1393.135742 446.026611 1391.106323 493.988525 1391.106323 493.988525 C 1391.106323 493.988525 1393.55481 566.932434 1398.09314 604.778687 C 1402.631348 642.625 1408.659058 686.8479 1408.659058 686.8479 L 1423.049805 686.660767 C 1423.049805 686.660767 1410.419434 607.468933 1409.206787 512.034424 C 1409.372559 493.208771 1409.027466 455.07782 1425.024536 445.833618 C 1441.021606 436.589417 1452.989136 433.103821 1452.989136 433.103821 Z"/>
            <path id="path2" fill="#7f7f7f" fill-rule="evenodd" stroke="none" d="M 1487.716553 686.623718 L 1547.928223 686.623718 C 1547.928223 686.623718 1579.101685 465.438965 1547.928223 447.077393 C 1524.350952 432.222107 1509.36499 428.946167 1487.716553 440.090576 C 1456.281982 457.61792 1487.716553 686.623718 1487.716553 686.623718 Z"/>
            <path id="Rectangle-copy-2" fill="#7f7f7f" fill-rule="evenodd" stroke="none" d="M 1481.937012 686.623718 L 1421.72522 686.623718 C 1421.72522 686.623718 1390.551758 465.438965 1421.72522 447.077393 C 1445.30249 432.222107 1460.288452 428.946167 1481.937012 440.090576 C 1513.37146 457.61792 1481.937012 686.623718 1481.937012 686.623718 Z"/>
            <path id="path3" fill="#000000" fill-rule="evenodd" stroke="none" d="M 1438.289795 686.623718 L 1530.518799 686.623718 C 1530.518799 686.623718 1571.668945 458.452209 1530.518799 440.090576 C 1500.094116 429.197327 1466.866699 428.946167 1438.289795 440.090576 C 1396.795044 457.61792 1438.289795 686.623718 1438.289795 686.623718 Z"/>
        </g>
        <g id="dupka">
            <linearGradient id="linearGradient4" x1="1618.374096" y1="681.975642" x2="1618.374096" y2="477.092419" gradientUnits="userSpaceOnUse">
                <stop offset="0" stop-color="#a4a4a4" stop-opacity="1"/>
                <stop offset="1" stop-color="#00e0c0" stop-opacity="1"/>
            </linearGradient>
            <path id="Rectangle-copy-10" fill="url(#linearGradient4)" fill-rule="evenodd" stroke="none" d="M 1496.747192 707.341797 L 1567.819336 707.341797 L 1589.916992 707.341797 L 1611.063965 707.341797 C 1611.063965 707.341797 1670.249268 468.351074 1611.063965 448.51123 C 1566.300781 432.460083 1557.843384 424.794006 1519.859131 434.61145 C 1460.178223 453.549683 1496.747192 707.341797 1496.747192 707.341797 Z"/>
            <path id="Path-copy-3" fill="#7c7c7c" fill-rule="evenodd" stroke="none" d="M 1519.394897 433.412781 C 1519.394897 433.412781 1560.909302 423.6203 1572.488037 435.498108 C 1584.06665 447.375916 1586.259399 499.198914 1586.259399 499.198914 C 1586.259399 499.198914 1583.61377 578.015015 1578.710205 618.908081 C 1573.806519 659.801086 1567.293701 707.584045 1567.293701 707.584045 L 1551.744507 707.381836 C 1551.744507 707.381836 1565.391602 621.814819 1566.701782 518.697571 C 1566.522705 498.356354 1566.89563 457.155823 1549.610718 447.167419 C 1532.325806 437.179016 1519.394897 433.412781 1519.394897 433.412781 Z"/>
            <linearGradient id="linearGradient5" x1="1466.66141" y1="681.99593" x2="1466.66141" y2="477.276571" gradientUnits="userSpaceOnUse">
                <stop offset="0" stop-color="#a4a4a4" stop-opacity="1"/>
                <stop offset="1" stop-color="#00e0c0" stop-opacity="1"/>
            </linearGradient>
            <path id="Rectangle-copy-11" fill="url(#linearGradient5)" fill-rule="evenodd" stroke="none" d="M 1474.567261 707.341797 L 1403.495117 707.341797 L 1381.397461 707.341797 L 1360.250366 707.341797 C 1360.250366 707.341797 1301.065186 468.351074 1360.250366 448.51123 C 1405.013672 432.460083 1411.075195 425.295532 1451.455322 434.61145 C 1511.13623 453.549683 1474.567261 707.341797 1474.567261 707.341797 Z"/>
            <path id="Path-copy-2" fill="#7c7c7c" fill-rule="evenodd" stroke="none" d="M 1450.373413 433.412781 C 1450.373413 433.412781 1408.859009 423.6203 1397.280273 435.498108 C 1385.701538 447.375916 1383.508789 499.198914 1383.508789 499.198914 C 1383.508789 499.198914 1386.154419 578.015015 1391.058105 618.908081 C 1395.96167 659.801086 1402.474609 707.584045 1402.474609 707.584045 L 1418.023804 707.381836 C 1418.023804 707.381836 1404.376587 621.814819 1403.066406 518.697571 C 1403.245483 498.356354 1402.872681 457.155823 1420.157593 447.167419 C 1437.442383 437.179016 1450.373413 433.412781 1450.373413 433.412781 Z"/>
            <path id="Rectangle-copy-8" fill="#7c7c7c" fill-rule="evenodd" stroke="none" d="M 1487.896362 707.341797 L 1552.955322 707.341797 C 1552.955322 707.341797 1586.638428 468.351013 1552.955322 448.51123 C 1527.480103 432.460083 1511.28772 428.920471 1487.896362 440.962036 C 1453.931274 459.90033 1487.896362 707.341797 1487.896362 707.341797 Z"/>
            <path id="Rectangle-copy-7" fill="#7c7c7c" fill-rule="evenodd" stroke="none" d="M 1481.651611 707.341797 L 1416.592651 707.341797 C 1416.592651 707.341797 1382.909546 468.351013 1416.592651 448.51123 C 1442.067871 432.460083 1458.260254 428.920471 1481.651611 440.962036 C 1515.616699 459.90033 1481.651611 707.341797 1481.651611 707.341797 Z"/>
            <linearGradient id="linearGradient6" x1="1483.102728" y1="429.089313" x2="1483.102728" y2="707.341809" gradientUnits="userSpaceOnUse">
                <stop offset="0" stop-color="#272727" stop-opacity="1"/>
                <stop offset="1" stop-color="#363636" stop-opacity="1"/>
            </linearGradient>
            <path id="Rectangle-copy-6" fill="url(#linearGradient6)" fill-rule="evenodd" stroke="none" d="M 1434.490601 707.341797 L 1534.144287 707.341797 C 1534.144287 707.341797 1576.590698 457.765747 1532.127808 437.926025 C 1499.254028 426.155884 1464.314331 426.069885 1433.436768 438.111511 C 1388.601685 457.049744 1434.490601 707.341797 1434.490601 707.341797 Z"/>
        </g>
        <linearGradient id="linearGradient7" x1="1483.025253" y1="502.971534" x2="1483.025253" y2="623.742813" gradientUnits="userSpaceOnUse">
            <stop offset="0" stop-color="#e5e5e5" stop-opacity="1"/>
            <stop offset="1" stop-color="#1c1c1c" stop-opacity="0"/>
        </linearGradient>
        <path id="path4" fill="url(#linearGradient7)" fill-rule="evenodd" stroke="none" d="M 1434.616943 623.742798 L 1530.435425 623.742798 L 1544.408936 502.971527 L 1421.641479 502.971527 Z"/>
        <linearGradient id="linearGradient8" x1="1484.595389" y1="541.71067" x2="1484.595389" y2="707.593811" gradientUnits="userSpaceOnUse">
            <stop offset="0" stop-color="#1c1c1c" stop-opacity="0"/>
            <stop offset="1" stop-color="#f8ff62" stop-opacity="1"/>
        </linearGradient>
        <path id="path5" fill="url(#linearGradient8)" fill-rule="evenodd" stroke="none" d="M 1531.839844 707.584045 L 1434.025024 707.584045 C 1434.025024 707.584045 1419.151001 619.94812 1415.318848 541.710693 C 1428.294312 541.710693 1553.871948 541.753052 1553.871948 541.753052 C 1553.871948 541.753052 1548.394653 626.635742 1534.335815 707.591187 C 1533.104126 707.599854 1531.839844 707.584045 1531.839844 707.584045 Z"/>
        <g id="Group-copy">
            <path id="Path-copy-7" fill="#7c7c7c" fill-rule="evenodd" stroke="none" d="M 1547.026489 493.953583 C 1547.026489 471.518921 1518.372192 453.332031 1483.025269 453.332031 C 1447.678345 453.332031 1419.024048 471.518921 1419.024048 493.953583 C 1419.024048 516.388245 1447.678345 534.575073 1483.025269 534.575073 C 1518.372192 534.575073 1547.026489 516.388245 1547.026489 493.953583 Z"/>
            <path id="Path-copy-4" fill="#a4a4a4" fill-rule="evenodd" stroke="none" d="M 1547.026489 481.314087 C 1547.026489 458.879395 1518.372192 440.692505 1483.025269 440.692505 C 1447.678345 440.692505 1419.024048 458.879395 1419.024048 481.314087 C 1419.024048 503.748749 1447.678345 521.935608 1483.025269 521.935608 C 1518.372192 521.935608 1547.026489 503.748749 1547.026489 481.314087 Z"/>
            <path id="Path-copy-5" fill="#60deff" fill-rule="evenodd" stroke="none" d="M 1534.266357 481.533447 C 1534.266357 463.629883 1511.399292 449.11615 1483.191284 449.11615 C 1454.983276 449.11615 1432.116211 463.629883 1432.116211 481.533447 C 1432.116211 499.437012 1454.983276 513.950745 1483.191284 513.950745 C 1511.399292 513.950745 1534.266357 499.437012 1534.266357 481.533447 Z"/>
            <path id="path6" fill="#439bb2" fill-rule="evenodd" stroke="none" d="M 1432.286865 486.280518 C 1432.286865 486.280518 1439.138184 460.272705 1482.674194 460.272705 C 1526.210205 460.272705 1534.205444 486.721924 1534.205444 486.721924 C 1534.205444 486.721924 1540.25415 449.037598 1482.674194 449.037598 C 1426.498657 449.037598 1432.286865 486.280518 1432.286865 486.280518 Z"/>
            <path id="Path-copy-6" fill="#26d1ff" fill-rule="evenodd" stroke="none" d="M 1515.809937 481.533447 C 1515.809937 470.099487 1501.206055 460.830383 1483.191284 460.830383 C 1465.176514 460.830383 1450.572632 470.099487 1450.572632 481.533447 C 1450.572632 492.967407 1465.176514 502.23645 1483.191284 502.23645 C 1501.206055 502.23645 1515.809937 492.967407 1515.809937 481.533447 Z"/>
            <path id="path7" fill="#75e2ff" fill-opacity="0.547438" fill-rule="evenodd" stroke="none" d="M 1516.898193 468.87854 L 1462.431885 510.630127 C 1462.431885 510.630127 1467.800903 512.727783 1476.746704 513.674927 C 1479.161621 511.867798 1522.233276 472.833069 1522.233276 472.833069 L 1516.898193 468.87854 Z"/>
            <path id="path8" fill="#75e2ff" fill-opacity="0.547438" fill-rule="evenodd" stroke="none" d="M 1510.716187 466.080933 L 1450.130615 505.980255 C 1450.130615 505.980255 1452.629395 507.5354 1456.575073 509.588745 C 1459.101929 507.941681 1513.156006 467.372498 1513.156006 467.372498 L 1510.716187 466.080933 Z"/>
        </g>
        <filter id="filter1" x="0" y="0" width="2000" height="1000" filterUnits="userSpaceOnUse" primitiveUnits="userSpaceOnUse" color-interpolation-filters="sRGB">
            <feFlood flood-color="#000000" flood-opacity="0.161755"/>
            <feComposite in2="SourceGraphic" operator="out"/>
            <feGaussianBlur stdDeviation="0"/>
            <feOffset dx="0" dy="-14.971647"/>
            <feComposite in2="SourceGraphic" operator="atop"/>
        </filter>
        <path id="path9" fill="#d0d0d0" fill-rule="evenodd" stroke="none" filter="url(#filter1)" d="M 1234.264648 741.519775 L 1735.454224 741.519775 L 1735.454224 707.584045 L 1234.264648 707.584045 Z"/>
        <path id="Rectangle-copy-5" fill="#d0d0d0" fill-rule="evenodd" stroke="none" d="M 1224.375854 763.74939 L 1749.47998 763.752136 L 1749.480103 740.237 L 1224.375977 740.234314 Z"/>
        <g id="Stars">
            <linearGradient id="linearGradient9" x1="1389.110134" y1="317.478356" x2="1389.110134" y2="279.328381" gradientUnits="userSpaceOnUse">
                <stop offset="0" stop-color="#00ffc9" stop-opacity="0"/>
                <stop offset="1" stop-color="#fffc67" stop-opacity="1"/>
            </linearGradient>
            <path id="Star-copy-6" fill="url(#linearGradient9)" fill-rule="evenodd" stroke="none" d="M 1389.110107 279.328369 L 1386.029053 295.459167 L 1369.147949 298.403381 L 1386.029053 301.347534 L 1389.110107 317.478333 L 1392.191284 301.347534 L 1409.072388 298.403381 L 1392.191284 295.459167 Z"/>
            <linearGradient id="linearGradient10" x1="1308.663722" y1="287.834647" x2="1308.663722" y2="260.364294" gradientUnits="userSpaceOnUse">
                <stop offset="0" stop-color="#00ffc9" stop-opacity="0"/>
                <stop offset="1" stop-color="#fffc67" stop-opacity="1"/>
            </linearGradient>
            <path id="Star-copy-7" fill="url(#linearGradient10)" fill-rule="evenodd" stroke="none" d="M 1308.663696 260.364319 L 1306.445068 271.979492 L 1294.289673 274.099487 L 1306.445068 276.219482 L 1308.663696 287.834656 L 1310.882324 276.219482 L 1323.03772 274.099487 L 1310.882324 271.979492 Z"/>
            <linearGradient id="linearGradient11" x1="1307.665612" y1="207.985861" x2="1307.665612" y2="180.515507" gradientUnits="userSpaceOnUse">
                <stop offset="0" stop-color="#00ffc9" stop-opacity="0"/>
                <stop offset="1" stop-color="#fffc67" stop-opacity="1"/>
            </linearGradient>
            <path id="Star-copy-10" fill="url(#linearGradient11)" fill-rule="evenodd" stroke="none" d="M 1307.665649 180.515503 L 1305.447021 192.130676 L 1293.291626 194.250671 L 1305.447021 196.370667 L 1307.665649 207.98584 L 1309.884155 196.370667 L 1322.039673 194.250671 L 1309.884155 192.130676 Z"/>
            <linearGradient id="linearGradient12" x1="1439.41611" y1="138.118172" x2="1439.41611" y2="110.647819" gradientUnits="userSpaceOnUse">
                <stop offset="0" stop-color="#00ffc9" stop-opacity="0"/>
                <stop offset="1" stop-color="#fffc67" stop-opacity="1"/>
            </linearGradient>
            <path id="Star-copy-13" fill="url(#linearGradient12)" fill-rule="evenodd" stroke="none" d="M 1439.416138 110.647827 L 1437.19751 122.263 L 1425.042114 124.382996 L 1437.19751 126.502991 L 1439.416138 138.118164 L 1441.634766 126.502991 L 1453.790161 124.382996 L 1441.634766 122.263 Z"/>
            <linearGradient id="linearGradient13" x1="1365.155498" y1="251.603107" x2="1365.155498" y2="213.453132" gradientUnits="userSpaceOnUse">
                <stop offset="0" stop-color="#00ffc9" stop-opacity="0"/>
                <stop offset="1" stop-color="#fffc67" stop-opacity="1"/>
            </linearGradient>
            <path id="Star-copy-8" fill="url(#linearGradient13)" fill-rule="evenodd" stroke="none" d="M 1365.155518 213.453125 L 1362.074341 229.583923 L 1345.193359 232.528137 L 1362.074341 235.47229 L 1365.155518 251.603088 L 1368.236572 235.47229 L 1385.117676 232.528137 L 1368.236572 229.583923 Z"/>
            <linearGradient id="linearGradient14" x1="1368.149827" y1="155.74756" x2="1368.149827" y2="119.667811" gradientUnits="userSpaceOnUse">
                <stop offset="0" stop-color="#00ffc9" stop-opacity="0"/>
                <stop offset="1" stop-color="#fffc67" stop-opacity="1"/>
            </linearGradient>
            <path id="Star-copy-12" fill="url(#linearGradient14)" fill-rule="evenodd" stroke="none" d="M 1368.14978 119.667786 L 1365.235962 134.923279 L 1349.270874 137.707703 L 1365.235962 140.492065 L 1368.14978 155.747559 L 1371.063721 140.492065 L 1387.028809 137.707703 L 1371.063721 134.923279 Z"/>
            <linearGradient id="linearGradient15" x1="1406.078001" y1="214.800668" x2="1406.078001" y2="164.418125" gradientUnits="userSpaceOnUse">
                <stop offset="0" stop-color="#00ffc9" stop-opacity="0"/>
                <stop offset="1" stop-color="#fffc67" stop-opacity="1"/>
            </linearGradient>
            <path id="Star-copy-9" fill="url(#linearGradient15)" fill-rule="evenodd" stroke="none" d="M 1406.078003 164.418152 L 1402.008911 185.721191 L 1379.715088 189.609375 L 1402.008911 193.49762 L 1406.078003 214.800659 L 1410.147095 193.49762 L 1432.440918 189.609375 L 1410.147095 185.721191 Z"/>
            <linearGradient id="linearGradient16" x1="1389.110134" y1="317.478356" x2="1389.110134" y2="279.328381" gradientUnits="userSpaceOnUse">
                <stop offset="0" stop-color="#00ffc9" stop-opacity="0"/>
                <stop offset="1" stop-color="#fffc67" stop-opacity="1"/>
            </linearGradient>
            <path id="Star-copy-19" fill="url(#linearGradient16)" fill-rule="evenodd" stroke="none" d="M 1389.110107 279.328369 L 1386.029053 295.459167 L 1369.147949 298.403381 L 1386.029053 301.347534 L 1389.110107 317.478333 L 1392.191284 301.347534 L 1409.072388 298.403381 L 1392.191284 295.459167 Z"/>
            <linearGradient id="linearGradient17" x1="1308.663722" y1="287.834647" x2="1308.663722" y2="260.364294" gradientUnits="userSpaceOnUse">
                <stop offset="0" stop-color="#00ffc9" stop-opacity="0"/>
                <stop offset="1" stop-color="#fffc67" stop-opacity="1"/>
            </linearGradient>
            <path id="Star-copy-18" fill="url(#linearGradient17)" fill-rule="evenodd" stroke="none" d="M 1308.663696 260.364319 L 1306.445068 271.979492 L 1294.289673 274.099487 L 1306.445068 276.219482 L 1308.663696 287.834656 L 1310.882324 276.219482 L 1323.03772 274.099487 L 1310.882324 271.979492 Z"/>
            <linearGradient id="linearGradient18" x1="1307.665612" y1="207.985861" x2="1307.665612" y2="180.515507" gradientUnits="userSpaceOnUse">
                <stop offset="0" stop-color="#00ffc9" stop-opacity="0"/>
                <stop offset="1" stop-color="#fffc67" stop-opacity="1"/>
            </linearGradient>
            <path id="Star-copy-17" fill="url(#linearGradient18)" fill-rule="evenodd" stroke="none" d="M 1307.665649 180.515503 L 1305.447021 192.130676 L 1293.291626 194.250671 L 1305.447021 196.370667 L 1307.665649 207.98584 L 1309.884155 196.370667 L 1322.039673 194.250671 L 1309.884155 192.130676 Z"/>
            <linearGradient id="linearGradient19" x1="1439.41611" y1="138.118172" x2="1439.41611" y2="110.647819" gradientUnits="userSpaceOnUse">
                <stop offset="0" stop-color="#00ffc9" stop-opacity="0"/>
                <stop offset="1" stop-color="#fffc67" stop-opacity="1"/>
            </linearGradient>
            <path id="Star-copy-16" fill="url(#linearGradient19)" fill-rule="evenodd" stroke="none" d="M 1439.416138 110.647827 L 1437.19751 122.263 L 1425.042114 124.382996 L 1437.19751 126.502991 L 1439.416138 138.118164 L 1441.634766 126.502991 L 1453.790161 124.382996 L 1441.634766 122.263 Z"/>
            <linearGradient id="linearGradient20" x1="1365.155498" y1="251.603107" x2="1365.155498" y2="213.453132" gradientUnits="userSpaceOnUse">
                <stop offset="0" stop-color="#00ffc9" stop-opacity="0"/>
                <stop offset="1" stop-color="#fffc67" stop-opacity="1"/>
            </linearGradient>
            <path id="Star-copy-15" fill="url(#linearGradient20)" fill-rule="evenodd" stroke="none" d="M 1365.155518 213.453125 L 1362.074341 229.583923 L 1345.193359 232.528137 L 1362.074341 235.47229 L 1365.155518 251.603088 L 1368.236572 235.47229 L 1385.117676 232.528137 L 1368.236572 229.583923 Z"/>
            <linearGradient id="linearGradient21" x1="1368.149827" y1="155.74756" x2="1368.149827" y2="119.667811" gradientUnits="userSpaceOnUse">
                <stop offset="0" stop-color="#00ffc9" stop-opacity="0"/>
                <stop offset="1" stop-color="#fffc67" stop-opacity="1"/>
            </linearGradient>
            <path id="Star-copy-14" fill="url(#linearGradient21)" fill-rule="evenodd" stroke="none" d="M 1368.14978 119.667786 L 1365.235962 134.923279 L 1349.270874 137.707703 L 1365.235962 140.492065 L 1368.14978 155.747559 L 1371.063721 140.492065 L 1387.028809 137.707703 L 1371.063721 134.923279 Z"/>
            <linearGradient id="linearGradient22" x1="1406.078001" y1="214.800668" x2="1406.078001" y2="164.418125" gradientUnits="userSpaceOnUse">
                <stop offset="0" stop-color="#00ffc9" stop-opacity="0"/>
                <stop offset="1" stop-color="#fffc67" stop-opacity="1"/>
            </linearGradient>
            <path id="Star-copy-11" fill="url(#linearGradient22)" fill-rule="evenodd" stroke="none" d="M 1406.078003 164.418152 L 1402.008911 185.721191 L 1379.715088 189.609375 L 1402.008911 193.49762 L 1406.078003 214.800659 L 1410.147095 193.49762 L 1432.440918 189.609375 L 1410.147095 185.721191 Z"/>
        </g>
        <path id="Text-Background" fill="#d1d1d1" fill-rule="evenodd" stroke="none" d="M 1220.053467 941.599548 L 1755.12561 941.599548 L 1755.12561 776.219055 L 1220.053467 776.219055 Z"/>
        <path id="Text-Background-copy" fill="#aeaeae" fill-rule="evenodd" stroke="none" d="M 1220.053467 777.675293 L 1755.12561 777.675293 L 1755.12561 763.331421 L 1220.053467 763.331421 Z"/>
        <g id="Black-Text">
            <text id="SPACE-OBSERVATORY" xml:space="preserve" x="1238" y="926" font-family="AppleMyungjo" font-size="46.377289" fill="#262626" letter-spacing="-1.391319">SPACE OBSERVATORY</text>
            <text id="HUBBLE" xml:space="preserve" x="1235" y="879" font-family="AppleMyungjo" font-size="118.425895" fill="#262626">HUBBLE</text>
        </g>
        <linearGradient id="linearGradient23" x1="1592.225485" y1="123.689787" x2="1592.225485" y2="380.204014" gradientUnits="userSpaceOnUse">
            <stop offset="0" stop-color="#ffffff" stop-opacity="1"/>
            <stop offset="1" stop-color="#0fa08b" stop-opacity="0"/>
        </linearGradient>
        <path id="Ellipse" fill="url(#linearGradient23)" fill-rule="evenodd" stroke="none" d="M 1720.482544 251.946899 C 1720.482544 181.112427 1663.059937 123.689819 1592.225464 123.689819 C 1521.390991 123.689819 1463.968384 181.112427 1463.968384 251.946899 C 1463.968384 322.781372 1521.390991 380.204041 1592.225464 380.204041 C 1663.059937 380.204041 1720.482544 322.781372 1720.482544 251.946899 Z"/>
    </g>
    <g id="Logo-2-Day">
        <linearGradient id="linearGradient24" x1="496.944241" y1="55" x2="496.944241" y2="779.493579" gradientUnits="userSpaceOnUse">
            <stop offset="0" stop-color="#3636b6" stop-opacity="1"/>
            <stop offset="1" stop-color="#0fa08b" stop-opacity="1"/>
        </linearGradient>
        <path id="path10" fill="url(#linearGradient24)" fill-rule="evenodd" stroke="#ffffff" stroke-width="23.409382" d="M 507.84375 43.453125 L 515.0625 43.75 L 522.25 44.203125 L 529.375 44.796875 L 536.4375 45.546875 L 543.453125 46.4375 L 550.40625 47.453125 L 557.3125 48.625 L 564.15625 49.9375 L 570.921875 51.375 L 577.625 52.9375 L 584.28125 54.640625 L 590.859375 56.5 L 597.359375 58.453125 L 603.796875 60.546875 L 610.15625 62.78125 L 616.421875 65.125 L 622.625 67.59375 L 628.734375 70.203125 L 634.765625 72.90625 L 640.703125 75.734375 L 646.5625 78.671875 L 652.328125 81.734375 L 657.96875 84.90625 L 663.5625 88.1875 L 669.046875 91.59375 L 674.40625 95.078125 L 679.6875 98.6875 L 684.859375 102.390625 L 689.921875 106.21875 L 694.859375 110.140625 L 699.703125 114.140625 L 704.4375 118.265625 L 709.046875 122.46875 L 713.53125 126.78125 L 717.90625 131.1875 L 722.15625 135.671875 L 726.265625 140.234375 L 730.265625 144.90625 L 734.125 149.671875 L 736.9375 153.296875 L 738.765625 155.734375 L 740.578125 158.203125 L 742.34375 160.703125 L 744.0625 163.1875 L 745.75 165.6875 L 747.421875 168.25 L 749.03125 170.8125 L 750.625 173.375 L 752.1875 176 L 753.71875 178.625 L 755.171875 181.25 L 756.609375 183.890625 L 758.015625 186.578125 L 759.390625 189.28125 L 760.734375 192 L 762.015625 194.734375 L 763.25 197.4375 L 764.46875 200.203125 L 765.671875 203.015625 L 766.796875 205.828125 L 767.875 208.609375 L 768.9375 211.4375 L 769.953125 214.296875 L 770.90625 217.125 L 771.859375 220.015625 L 772.75 222.921875 L 773.609375 225.8125 L 774.40625 228.75 L 775.171875 231.671875 L 775.890625 234.640625 L 776.5625 237.578125 L 777.21875 240.5625 L 777.796875 243.578125 L 778.34375 246.546875 L 778.84375 249.53125 L 779.3125 252.59375 L 779.734375 255.640625 L 780.09375 258.671875 L 780.421875 261.71875 L 780.71875 264.8125 L 780.9375 267.921875 L 781.125 271.015625 L 781.265625 274.109375 L 781.359375 277.203125 L 781.40625 280.328125 L 781.40625 791.1875 L 212.46875 791.1875 L 212.46875 280.328125 L 212.515625 277.234375 L 212.59375 274.109375 L 212.75 270.984375 L 212.9375 267.921875 L 213.15625 264.8125 L 213.453125 261.71875 L 213.78125 258.671875 L 214.140625 255.640625 L 214.5625 252.59375 L 215.015625 249.5625 L 215.515625 246.546875 L 216.078125 243.546875 L 216.65625 240.5625 L 217.3125 237.578125 L 217.984375 234.640625 L 218.6875 231.703125 L 219.453125 228.75 L 220.28125 225.78125 L 221.125 222.921875 L 222.015625 220.015625 L 222.953125 217.15625 L 223.90625 214.296875 L 224.953125 211.421875 L 226 208.609375 L 227.078125 205.828125 L 228.203125 203.015625 L 229.40625 200.203125 L 230.625 197.4375 L 231.859375 194.734375 L 233.140625 192 L 234.484375 189.28125 L 235.859375 186.578125 L 237.265625 183.890625 L 238.703125 181.25 L 240.15625 178.625 L 241.6875 176 L 243.25 173.375 L 244.84375 170.8125 L 246.453125 168.25 L 248.125 165.6875 L 249.8125 163.1875 L 251.53125 160.703125 L 253.296875 158.203125 L 255.109375 155.734375 L 256.9375 153.296875 L 259.75 149.671875 L 263.609375 144.90625 L 267.609375 140.234375 L 271.71875 135.671875 L 275.96875 131.1875 L 280.34375 126.78125 L 284.828125 122.46875 L 289.4375 118.265625 L 294.171875 114.140625 L 299.015625 110.140625 L 303.953125 106.21875 L 309.015625 102.390625 L 314.1875 98.703125 L 319.453125 95.078125 L 324.828125 91.59375 L 330.296875 88.1875 L 335.875 84.90625 L 341.5625 81.734375 L 347.3125 78.671875 L 353.171875 75.734375 L 359.09375 72.90625 L 365.125 70.203125 L 371.25 67.59375 L 377.4375 65.125 L 383.71875 62.78125 L 390.078125 60.546875 L 396.515625 58.453125 L 403.015625 56.5 L 409.59375 54.640625 L 416.25 52.9375 L 422.953125 51.375 L 429.71875 49.9375 L 436.5625 48.625 L 443.46875 47.453125 L 450.421875 46.4375 L 457.4375 45.546875 L 464.5 44.796875 L 471.625 44.203125 L 478.8125 43.75 L 486.03125 43.453125 L 493.28125 43.296875 L 500.59375 43.296875 Z"/>
        <linearGradient id="linearGradient25" x1="497.790437" y1="744.439715" x2="497.790437" y2="524.595078" gradientUnits="userSpaceOnUse">
            <stop offset="0" stop-color="#cbcbcb" stop-opacity="1"/>
            <stop offset="1" stop-color="#00ffdb" stop-opacity="1"/>
        </linearGradient>
        <path id="path11" fill="url(#linearGradient25)" fill-rule="evenodd" stroke="none" d="M 735.109253 681.784851 C 735.109253 549.125732 627.56781 441.584229 494.90863 441.584229 C 362.249512 441.584229 254.708023 549.125732 254.708023 681.784851 C 254.708023 718.929443 262.714935 748.072754 277.768066 779.469482 C 470.436157 779.640747 490.716614 779.525513 712.008484 779.552979 C 726.065674 749.019531 735.109253 717.602783 735.109253 681.784851 Z"/>
        <g id="g1">
            <path id="path12" fill="#a4a4a4" fill-rule="evenodd" stroke="none" d="M 506.104431 701.123047 L 573.178833 701.123047 L 594.03363 701.123047 L 613.99115 701.123047 C 613.99115 701.123047 669.847351 475.575012 613.99115 456.851196 C 571.745728 441.702881 566.705994 432.368958 527.916382 443.733215 C 471.592377 461.606262 506.104431 701.123047 506.104431 701.123047 Z"/>
            <path id="path13" fill="#7c7c7c" fill-rule="evenodd" stroke="none" d="M 527.47821 442.602051 C 527.47821 442.602051 566.657532 433.360352 577.584961 444.570068 C 588.51239 455.779724 590.581787 504.687775 590.581787 504.687775 C 590.581787 504.687775 588.084961 579.070618 583.457153 617.663513 C 578.829346 656.256348 572.6828 701.351685 572.6828 701.351685 L 558.00824 701.160767 C 558.00824 701.160767 570.887756 620.406799 572.124207 523.089661 C 571.955261 503.892639 572.307129 465.009521 555.994507 455.582947 C 539.681885 446.156372 527.47821 442.602051 527.47821 442.602051 Z"/>
            <path id="path14" fill="#a4a4a4" fill-rule="evenodd" stroke="none" d="M 484.841492 701.123047 L 376.954773 701.123047 C 376.954773 701.123047 321.098572 475.575012 376.954773 456.851196 C 419.200226 441.702881 424.23996 432.368958 463.029572 443.733215 C 519.353577 461.606262 484.841492 701.123047 484.841492 701.123047 Z"/>
            <path id="path15" fill="#7c7c7c" fill-rule="evenodd" stroke="none" d="M 462.339081 442.602051 C 462.339081 442.602051 423.15976 433.360352 412.23233 444.570068 C 401.304901 455.779724 399.235504 504.687775 399.235504 504.687775 C 399.235504 504.687775 401.7323 579.070618 406.360107 617.663513 C 410.987915 656.256348 417.13446 701.351685 417.13446 701.351685 L 431.809052 701.160767 C 431.809052 701.160767 418.929535 620.406799 417.693054 523.089661 C 417.86203 503.892639 417.510193 465.009521 433.822784 455.582947 C 450.135406 446.156372 462.339081 442.602051 462.339081 442.602051 Z"/>
            <path id="path16" fill="#7f7f7f" fill-rule="evenodd" stroke="none" d="M 497.751465 701.123047 L 559.151001 701.123047 C 559.151001 701.123047 590.939392 475.575012 559.151001 456.851196 C 535.108643 441.702881 519.827087 438.362366 497.751465 449.726624 C 465.696838 467.59967 497.751465 701.123047 497.751465 701.123047 Z"/>
            <path id="path17" fill="#7f7f7f" fill-rule="evenodd" stroke="none" d="M 491.857941 701.123047 L 430.458405 701.123047 C 430.458405 701.123047 398.669983 475.575012 430.458405 456.851196 C 454.500763 441.702881 469.782349 438.362366 491.857941 449.726624 C 523.912537 467.59967 491.857941 701.123047 491.857941 701.123047 Z"/>
            <path id="path18" fill="#000000" fill-rule="evenodd" stroke="none" d="M 447.349731 701.123047 L 541.398071 701.123047 C 541.398071 701.123047 583.359985 468.450439 541.398071 449.726624 C 510.37323 438.618469 476.490387 438.362366 447.349731 449.726624 C 405.036407 467.59967 447.349731 701.123047 447.349731 701.123047 Z"/>
        </g>
        <g id="dupka-copy">
            <linearGradient id="linearGradient26" x1="630.986498" y1="696.383255" x2="630.986498" y2="487.458362" gradientUnits="userSpaceOnUse">
                <stop offset="0" stop-color="#a4a4a4" stop-opacity="1"/>
                <stop offset="1" stop-color="#00e0c0" stop-opacity="1"/>
            </linearGradient>
            <path id="path19" fill="url(#linearGradient26)" fill-rule="evenodd" stroke="none" d="M 506.960297 722.249817 L 579.434387 722.249817 L 601.968018 722.249817 L 623.532166 722.249817 C 623.532166 722.249817 683.885071 478.544556 623.532166 458.313354 C 577.885864 441.945618 569.261719 434.128235 530.528137 444.139343 C 469.669952 463.451172 506.960297 722.249817 506.960297 722.249817 Z"/>
            <path id="path20" fill="#7c7c7c" fill-rule="evenodd" stroke="none" d="M 530.054749 442.917114 C 530.054749 442.917114 572.388123 432.931396 584.19519 445.043518 C 596.002319 457.15564 598.238281 510.000946 598.238281 510.000946 C 598.238281 510.000946 595.540527 590.371826 590.540161 632.071533 C 585.539795 673.77124 578.898438 722.496826 578.898438 722.496826 L 563.04248 722.290649 C 563.04248 722.290649 576.958862 635.035645 578.294861 529.884277 C 578.112305 509.141785 578.492493 467.128479 560.866638 456.942993 C 543.240845 446.757568 530.054749 442.917114 530.054749 442.917114 Z"/>
            <linearGradient id="linearGradient27" x1="476.281022" y1="696.403943" x2="476.281022" y2="487.646147" gradientUnits="userSpaceOnUse">
                <stop offset="0" stop-color="#a4a4a4" stop-opacity="1"/>
                <stop offset="1" stop-color="#00e0c0" stop-opacity="1"/>
            </linearGradient>
            <path id="path21" fill="url(#linearGradient27)" fill-rule="evenodd" stroke="none" d="M 484.342804 722.249817 L 411.868683 722.249817 L 389.335052 722.249817 L 367.770874 722.249817 C 367.770874 722.249817 307.418091 478.544556 367.770874 458.313354 C 413.417206 441.945618 419.598328 434.639709 460.774963 444.139343 C 521.633179 463.451172 484.342804 722.249817 484.342804 722.249817 Z"/>
            <path id="path22" fill="#7c7c7c" fill-rule="evenodd" stroke="none" d="M 459.671692 442.917114 C 459.671692 442.917114 417.338348 432.931396 405.531219 445.043518 C 393.724091 457.15564 391.488129 510.000946 391.488129 510.000946 C 391.488129 510.000946 394.185913 590.371826 399.186249 632.071533 C 404.186615 673.77124 410.828003 722.496826 410.828003 722.496826 L 426.683929 722.290649 C 426.683929 722.290649 412.767548 635.035645 411.431549 529.884277 C 411.614136 509.141785 411.233948 467.128479 428.859772 456.942993 C 446.485596 446.757568 459.671692 442.917114 459.671692 442.917114 Z"/>
            <path id="path23" fill="#7c7c7c" fill-rule="evenodd" stroke="none" d="M 497.934875 722.249817 L 564.277283 722.249817 C 564.277283 722.249817 598.624756 478.544495 564.277283 458.313416 C 538.299438 441.945557 521.787659 438.336121 497.934875 450.615234 C 463.299774 469.927124 497.934875 722.249817 497.934875 722.249817 Z"/>
            <path id="path24" fill="#7c7c7c" fill-rule="evenodd" stroke="none" d="M 491.566925 722.249817 L 425.224518 722.249817 C 425.224518 722.249817 390.877075 478.544495 425.224518 458.313416 C 451.202362 441.945557 467.714172 438.336121 491.566925 450.615234 C 526.202026 469.927124 491.566925 722.249817 491.566925 722.249817 Z"/>
            <linearGradient id="linearGradient28" x1="493.046673" y1="438.508313" x2="493.046673" y2="722.249813" gradientUnits="userSpaceOnUse">
                <stop offset="0" stop-color="#272727" stop-opacity="1"/>
                <stop offset="1" stop-color="#363636" stop-opacity="1"/>
            </linearGradient>
            <path id="path25" fill="url(#linearGradient28)" fill-rule="evenodd" stroke="none" d="M 443.475647 722.249817 L 545.095154 722.249817 C 545.095154 722.249817 588.378906 467.750427 543.038879 447.519348 C 509.516541 435.517029 473.887604 435.429321 442.401001 447.708496 C 396.681366 467.020325 443.475647 722.249817 443.475647 722.249817 Z"/>
        </g>
        <linearGradient id="linearGradient29" x1="492.967669" y1="513.847987" x2="492.967669" y2="637.001685" gradientUnits="userSpaceOnUse">
            <stop offset="0" stop-color="#e5e5e5" stop-opacity="1"/>
            <stop offset="1" stop-color="#1c1c1c" stop-opacity="0"/>
        </linearGradient>
        <path id="path26" fill="url(#linearGradient29)" fill-rule="evenodd" stroke="none" d="M 443.604401 637.001709 L 541.31311 637.001709 L 555.562317 513.847961 L 430.372986 513.847961 Z"/>
        <linearGradient id="linearGradient30" x1="494.56878" y1="553.351318" x2="494.56878" y2="722.506785" gradientUnits="userSpaceOnUse">
            <stop offset="0" stop-color="#1c1c1c" stop-opacity="0"/>
            <stop offset="1" stop-color="#f8ff62" stop-opacity="1"/>
        </linearGradient>
        <path id="path27" fill="url(#linearGradient30)" fill-rule="evenodd" stroke="none" d="M 542.745178 722.496826 L 443.000885 722.496826 C 443.000885 722.496826 427.833344 633.13208 423.925629 553.351318 C 437.157013 553.351318 565.211914 553.394531 565.211914 553.394531 C 565.211914 553.394531 559.626526 639.95166 545.290405 722.50415 C 544.034485 722.513 542.745178 722.496826 542.745178 722.496826 Z"/>
        <g id="g2">
            <path id="path28" fill="#7c7c7c" fill-rule="evenodd" stroke="none" d="M 558.231445 504.65213 C 558.231445 481.774902 529.011841 463.229248 492.967651 463.229248 C 456.923492 463.229248 427.703918 481.774902 427.703918 504.65213 C 427.703918 527.529358 456.923492 546.074951 492.967651 546.074951 C 529.011841 546.074951 558.231445 527.529358 558.231445 504.65213 Z"/>
            <path id="path29" fill="#a4a4a4" fill-rule="evenodd" stroke="none" d="M 558.231445 491.763306 C 558.231445 468.886108 529.011841 450.340393 492.967651 450.340393 C 456.923492 450.340393 427.703918 468.886108 427.703918 491.763306 C 427.703918 514.640503 456.923492 533.186157 492.967651 533.186157 C 529.011841 533.186157 558.231445 514.640503 558.231445 491.763306 Z"/>
            <path id="path30" fill="#60deff" fill-rule="evenodd" stroke="none" d="M 545.219543 491.987 C 545.219543 473.730225 521.901367 458.930176 493.136932 458.930176 C 464.372528 458.930176 441.054382 473.730225 441.054382 491.987 C 441.054382 510.243744 464.372528 525.043762 493.136932 525.043762 C 521.901367 525.043762 545.219543 510.243744 545.219543 491.987 Z"/>
            <path id="path31" fill="#439bb2" fill-rule="evenodd" stroke="none" d="M 441.228424 496.827698 C 441.228424 496.827698 448.214813 470.306885 492.60968 470.306885 C 537.004578 470.306885 545.157471 497.277832 545.157471 497.277832 C 545.157471 497.277832 551.3255 458.850159 492.60968 458.850159 C 435.325989 458.850159 441.228424 496.827698 441.228424 496.827698 Z"/>
            <path id="path32" fill="#26d1ff" fill-rule="evenodd" stroke="none" d="M 526.399048 491.986969 C 526.399048 480.327454 511.507111 470.875549 493.136963 470.875549 C 474.766815 470.875549 459.874878 480.327454 459.874878 491.986969 C 459.874878 503.646484 474.766815 513.098389 493.136963 513.098389 C 511.507111 513.098389 526.399048 503.646484 526.399048 491.986969 Z"/>
            <path id="path33" fill="#75e2ff" fill-opacity="0.547438" fill-rule="evenodd" stroke="none" d="M 527.508789 479.082458 L 471.968018 521.657715 C 471.968018 521.657715 477.442963 523.796692 486.565277 524.762573 C 489.027863 522.919739 532.949158 483.11499 532.949158 483.11499 L 527.508789 479.082458 Z"/>
            <path id="path34" fill="#75e2ff" fill-opacity="0.547438" fill-rule="evenodd" stroke="none" d="M 521.204773 476.229614 L 459.424072 516.916016 C 459.424072 516.916016 461.972198 518.501831 465.995758 520.595703 C 468.572418 518.916138 523.692749 477.546692 523.692749 477.546692 L 521.204773 476.229614 Z"/>
        </g>
        <filter id="filter2" x="0" y="0" width="2000" height="1000" filterUnits="userSpaceOnUse" primitiveUnits="userSpaceOnUse" color-interpolation-filters="sRGB">
            <feFlood flood-color="#000000" flood-opacity="0.161755"/>
            <feComposite in2="SourceGraphic" operator="out"/>
            <feGaussianBlur stdDeviation="0"/>
            <feOffset dx="0" dy="-15.266989"/>
            <feComposite in2="SourceGraphic" operator="atop"/>
        </filter>
        <path id="path35" fill="#d0d0d0" fill-rule="evenodd" stroke="none" filter="url(#filter2)" d="M 239.299896 757.10199 L 750.376221 757.10199 L 750.376221 722.496826 L 239.299896 722.496826 Z"/>
        <path id="path36" fill="#d0d0d0" fill-rule="evenodd" stroke="none" d="M 229.215973 779.770142 L 764.67865 779.772949 L 764.678772 755.793945 L 229.216095 755.791138 Z"/>
        <g id="g3">
            <linearGradient id="linearGradient31" x1="397.199915" y1="324.695641" x2="397.199915" y2="285.793092" gradientUnits="userSpaceOnUse">
                <stop offset="0" stop-color="#00ffc9" stop-opacity="0"/>
                <stop offset="1" stop-color="#fffc67" stop-opacity="1"/>
            </linearGradient>
            <path id="path37" fill="url(#linearGradient31)" fill-rule="evenodd" stroke="none" d="M 397.199921 285.793091 L 394.058014 302.242126 L 376.843933 305.244385 L 394.058014 308.246643 L 397.199921 324.695618 L 400.341797 308.246643 L 417.555908 305.244385 L 400.341797 302.242126 Z"/>
            <linearGradient id="linearGradient32" x1="315.166561" y1="294.467159" x2="315.166561" y2="266.454907" gradientUnits="userSpaceOnUse">
                <stop offset="0" stop-color="#00ffc9" stop-opacity="0"/>
                <stop offset="1" stop-color="#fffc67" stop-opacity="1"/>
            </linearGradient>
            <path id="path38" fill="url(#linearGradient32)" fill-rule="evenodd" stroke="none" d="M 315.166565 266.454895 L 312.904205 278.299194 L 300.508972 280.46106 L 312.904205 282.622864 L 315.166565 294.467163 L 317.428925 282.622864 L 329.824127 280.46106 L 317.428925 278.299194 Z"/>
            <linearGradient id="linearGradient33" x1="314.148762" y1="213.04322" x2="314.148762" y2="185.030967" gradientUnits="userSpaceOnUse">
                <stop offset="0" stop-color="#00ffc9" stop-opacity="0"/>
                <stop offset="1" stop-color="#fffc67" stop-opacity="1"/>
            </linearGradient>
            <path id="path39" fill="url(#linearGradient33)" fill-rule="evenodd" stroke="none" d="M 314.148773 185.030945 L 311.886414 196.875305 L 299.49118 199.037109 L 311.886414 201.198914 L 314.148773 213.043213 L 316.411133 201.198914 L 328.806335 199.037109 L 316.411133 196.875305 Z"/>
            <linearGradient id="linearGradient34" x1="448.498262" y1="141.797273" x2="448.498262" y2="113.78502" gradientUnits="userSpaceOnUse">
                <stop offset="0" stop-color="#00ffc9" stop-opacity="0"/>
                <stop offset="1" stop-color="#fffc67" stop-opacity="1"/>
            </linearGradient>
            <path id="path40" fill="url(#linearGradient34)" fill-rule="evenodd" stroke="none" d="M 448.49826 113.785034 L 446.235901 125.629333 L 433.840698 127.791138 L 446.235901 129.952942 L 448.49826 141.797302 L 450.76062 129.952942 L 463.155823 127.791138 L 450.76062 125.629333 Z"/>
            <linearGradient id="linearGradient35" x1="372.772734" y1="257.520891" x2="372.772734" y2="218.618342" gradientUnits="userSpaceOnUse">
                <stop offset="0" stop-color="#00ffc9" stop-opacity="0"/>
                <stop offset="1" stop-color="#fffc67" stop-opacity="1"/>
            </linearGradient>
            <path id="path41" fill="url(#linearGradient35)" fill-rule="evenodd" stroke="none" d="M 372.772736 218.618347 L 369.630829 235.067383 L 352.416748 238.069641 L 369.630829 241.071899 L 372.772736 257.520874 L 375.914642 241.071899 L 393.128723 238.069641 L 375.914642 235.067383 Z"/>
            <linearGradient id="linearGradient36" x1="375.826131" y1="159.774431" x2="375.826131" y2="122.982946" gradientUnits="userSpaceOnUse">
                <stop offset="0" stop-color="#00ffc9" stop-opacity="0"/>
                <stop offset="1" stop-color="#fffc67" stop-opacity="1"/>
            </linearGradient>
            <path id="path42" fill="url(#linearGradient36)" fill-rule="evenodd" stroke="none" d="M 375.826141 122.982971 L 372.854736 138.539368 L 356.574768 141.378662 L 372.854736 144.218018 L 375.826141 159.774414 L 378.797516 144.218018 L 395.077484 141.378662 L 378.797516 138.539368 Z"/>
            <linearGradient id="linearGradient37" x1="414.502503" y1="219.992461" x2="414.502503" y2="168.616037" gradientUnits="userSpaceOnUse">
                <stop offset="0" stop-color="#00ffc9" stop-opacity="0"/>
                <stop offset="1" stop-color="#fffc67" stop-opacity="1"/>
            </linearGradient>
            <path id="path43" fill="url(#linearGradient37)" fill-rule="evenodd" stroke="none" d="M 414.502502 168.616028 L 410.35318 190.339355 L 387.619476 194.30426 L 410.35318 198.269165 L 414.502502 219.992432 L 418.651825 198.269165 L 441.385529 194.30426 L 418.651825 190.339355 Z"/>
            <linearGradient id="linearGradient38" x1="397.199915" y1="324.695641" x2="397.199915" y2="285.793092" gradientUnits="userSpaceOnUse">
                <stop offset="0" stop-color="#00ffc9" stop-opacity="0"/>
                <stop offset="1" stop-color="#fffc67" stop-opacity="1"/>
            </linearGradient>
            <path id="path44" fill="url(#linearGradient38)" fill-rule="evenodd" stroke="none" d="M 397.199921 285.793091 L 394.058014 302.242126 L 376.843933 305.244385 L 394.058014 308.246643 L 397.199921 324.695618 L 400.341797 308.246643 L 417.555908 305.244385 L 400.341797 302.242126 Z"/>
            <linearGradient id="linearGradient39" x1="315.166561" y1="294.467159" x2="315.166561" y2="266.454907" gradientUnits="userSpaceOnUse">
                <stop offset="0" stop-color="#00ffc9" stop-opacity="0"/>
                <stop offset="1" stop-color="#fffc67" stop-opacity="1"/>
            </linearGradient>
            <path id="path45" fill="url(#linearGradient39)" fill-rule="evenodd" stroke="none" d="M 315.166565 266.454895 L 312.904205 278.299194 L 300.508972 280.46106 L 312.904205 282.622864 L 315.166565 294.467163 L 317.428925 282.622864 L 329.824127 280.46106 L 317.428925 278.299194 Z"/>
            <linearGradient id="linearGradient40" x1="314.148762" y1="213.04322" x2="314.148762" y2="185.030967" gradientUnits="userSpaceOnUse">
                <stop offset="0" stop-color="#00ffc9" stop-opacity="0"/>
                <stop offset="1" stop-color="#fffc67" stop-opacity="1"/>
            </linearGradient>
            <path id="path46" fill="url(#linearGradient40)" fill-rule="evenodd" stroke="none" d="M 314.148773 185.030945 L 311.886414 196.875305 L 299.49118 199.037109 L 311.886414 201.198914 L 314.148773 213.043213 L 316.411133 201.198914 L 328.806335 199.037109 L 316.411133 196.875305 Z"/>
            <linearGradient id="linearGradient41" x1="448.498262" y1="141.797273" x2="448.498262" y2="113.78502" gradientUnits="userSpaceOnUse">
                <stop offset="0" stop-color="#00ffc9" stop-opacity="0"/>
                <stop offset="1" stop-color="#fffc67" stop-opacity="1"/>
            </linearGradient>
            <path id="path47" fill="url(#linearGradient41)" fill-rule="evenodd" stroke="none" d="M 448.49826 113.785034 L 446.235901 125.629333 L 433.840698 127.791138 L 446.235901 129.952942 L 448.49826 141.797302 L 450.76062 129.952942 L 463.155823 127.791138 L 450.76062 125.629333 Z"/>
            <linearGradient id="linearGradient42" x1="372.772734" y1="257.520891" x2="372.772734" y2="218.618342" gradientUnits="userSpaceOnUse">
                <stop offset="0" stop-color="#00ffc9" stop-opacity="0"/>
                <stop offset="1" stop-color="#fffc67" stop-opacity="1"/>
            </linearGradient>
            <path id="path48" fill="url(#linearGradient42)" fill-rule="evenodd" stroke="none" d="M 372.772736 218.618347 L 369.630829 235.067383 L 352.416748 238.069641 L 369.630829 241.071899 L 372.772736 257.520874 L 375.914642 241.071899 L 393.128723 238.069641 L 375.914642 235.067383 Z"/>
            <linearGradient id="linearGradient43" x1="375.826131" y1="159.774431" x2="375.826131" y2="122.982946" gradientUnits="userSpaceOnUse">
                <stop offset="0" stop-color="#00ffc9" stop-opacity="0"/>
                <stop offset="1" stop-color="#fffc67" stop-opacity="1"/>
            </linearGradient>
            <path id="path49" fill="url(#linearGradient43)" fill-rule="evenodd" stroke="none" d="M 375.826141 122.982971 L 372.854736 138.539368 L 356.574768 141.378662 L 372.854736 144.218018 L 375.826141 159.774414 L 378.797516 144.218018 L 395.077484 141.378662 L 378.797516 138.539368 Z"/>
            <linearGradient id="linearGradient44" x1="414.502503" y1="219.992461" x2="414.502503" y2="168.616037" gradientUnits="userSpaceOnUse">
                <stop offset="0" stop-color="#00ffc9" stop-opacity="0"/>
                <stop offset="1" stop-color="#fffc67" stop-opacity="1"/>
            </linearGradient>
            <path id="path50" fill="url(#linearGradient44)" fill-rule="evenodd" stroke="none" d="M 414.502502 168.616028 L 410.35318 190.339355 L 387.619476 194.30426 L 410.35318 198.269165 L 414.502502 219.992432 L 418.651825 198.269165 L 441.385529 194.30426 L 418.651825 190.339355 Z"/>
        </g>
        <text id="text1" xml:space="preserve" x="201" y="968" font-family="AppleMyungjo" font-size="54.961159" fill="#ffffff" letter-spacing="-1.648835">SPACE OBSERVATORY</text>
        <text id="text2" xml:space="preserve" x="198" y="913" font-family="AppleMyungjo" font-size="140.345081" fill="#ffffff">HUBBLE</text>
        <linearGradient id="linearGradient45" x1="604.322062" y1="127.084264" x2="604.322062" y2="388.658669" gradientUnits="userSpaceOnUse">
            <stop offset="0" stop-color="#ffffff" stop-opacity="1"/>
            <stop offset="1" stop-color="#0fa08b" stop-opacity="0"/>
        </linearGradient>
        <path id="path51" fill="url(#linearGradient45)" fill-rule="evenodd" stroke="none" d="M 735.109253 257.87146 C 735.109253 185.639709 676.553833 127.08429 604.322083 127.08429 C 532.090271 127.08429 473.534851 185.639709 473.534851 257.87146 C 473.534851 330.103271 532.090271 388.658691 604.322083 388.658691 C 676.553833 388.658691 735.109253 330.103271 735.109253 257.87146 Z"/>
    </g>
</svg>
